<svg
	version="1.2"
	xmlns="http://www.w3.org/2000/svg"
	viewBox="0 0 1000 544"
	width="1000"
	height="444"
	>
	<style></style>
<path
	d="m302.3 147.6h-52c-24.3 0-30.5 13.8-30.5 32.5v23.6c0 18.7 6.2 32.6 30.5 32.6h52zm25 374.5c-17.4 0-25-7.7-25-25v-135.9h-97.1c-19.4 0-26.3 9-26.3 29.8v106.1c0 17.3-7.7 25-25 25h-107.5c-17.3 0-24.9-7.7-24.9-25v-147c0-58.3 33.2-95 83.9-100.6-29.2-12.4-38.9-40.2-38.9-79v-31.9c0-68.6 32.6-115.8 136.6-115.8h230.9c17.4 0 25 7.6 25 25v449.3c0 17.3-7.6 25-25 25z"
	fill="#202020"
	/>
	<path
	d="m849.5 22.7c-18 0-24.9 7.7-24.9 25v255.2l-40.3-87.4c-7.6-15.9-18.7-21.5-36.7-21.5h-29.1c-18.1 0-29.2 5.6-36.8 21.5l-40.2 87.4v-255.2c0-17.3-7.6-25-25-25h-106.8c-17.3 0-24.9 7.7-24.9 25v267.7c0 29.8 0 52 12.5 85.9l34.6 95.7c4.9 14.6 15.3 25 30.5 25h91.6c14.5 0 24.9-6.9 29.1-20.8l32.6-113c2.8-9 6.9-11.8 12.5-11.8h6.2c5.6 0 9.7 2.8 12.5 11.8l31.9 113c4.2 14.6 16.6 20.8 31.9 20.8h92.2c14.6 0 22.9-11.1 27.7-25l34.7-94.3c12.5-33.9 12.5-56.1 12.5-86v-269c0-17.3-7.6-25-25-25z"
	fill="#202020"
	/>
</svg>
